<svg xmlns="http://www.w3.org/2000/svg" width="21" height="21" viewBox="0 0 21 21">
  <path id="Path_1316" data-name="Path 1316" d="M1243.21,399.75v16.5a2.246,2.246,0,0,1-2.25,2.25h-3.98v-8.3h2.81l.42-3.187h-3.23V405a1.848,1.848,0,0,1,.28-1.125,1.617,1.617,0,0,1,1.26-.422h1.69v-2.812a17.687,17.687,0,0,0-2.44-.141,4.055,4.055,0,0,0-3,1.125,4.112,4.112,0,0,0-1.07,3.047v2.344h-2.86V410.2h2.86v8.3h-9.24a2.247,2.247,0,0,1-2.25-2.25v-16.5a2.247,2.247,0,0,1,2.25-2.25h16.5a2.246,2.246,0,0,1,2.25,2.25Z" transform="translate(-1222.21 -397.5)" fill="#3a3a3a"/>
</svg>
