<svg xmlns="http://www.w3.org/2000/svg" width="4.176" height="7.008" viewBox="0 0 4.176 7.008">
  <path id="Path_1277" data-name="Path 1277" d="M-1645.465,10.334a.635.635,0,0,1,.192.465.633.633,0,0,1-.192.464.643.643,0,0,1-.472.192.641.641,0,0,1-.472-.192l-2.832-2.849a.623.623,0,0,1-.208-.48.623.623,0,0,1,.208-.479l2.832-2.816a.641.641,0,0,1,.472-.192.643.643,0,0,1,.472.192.631.631,0,0,1,.192.463.635.635,0,0,1-.192.465l-2.368,2.367Z" transform="translate(1649.449 -4.447)" fill="#11171d"/>
</svg>
