<svg xmlns="http://www.w3.org/2000/svg" width="4.176" height="6.976" viewBox="0 0 4.176 6.976">
  <path id="Path_1279" data-name="Path 1279" d="M-1585.257,7.934a.627.627,0,0,1-.208.48l-2.832,2.816a.64.64,0,0,1-.472.193.638.638,0,0,1-.472-.193.64.64,0,0,1-.192-.471.639.639,0,0,1,.192-.472l2.368-2.353-2.368-2.367a.635.635,0,0,1-.192-.465.63.63,0,0,1,.192-.463.641.641,0,0,1,.472-.192.643.643,0,0,1,.472.192l2.832,2.816A.626.626,0,0,1-1585.257,7.934Z" transform="translate(1589.433 -4.447)" fill="#11171d"/>
</svg>
