<svg xmlns="http://www.w3.org/2000/svg" width="21" height="21" viewBox="0 0 21 21">
  <path id="Path_1317" data-name="Path 1317" d="M1276.77,402.609a5.26,5.26,0,0,0-2.72.75,5.4,5.4,0,0,0-1.96,1.969,5.247,5.247,0,0,0-.71,2.672,5.5,5.5,0,0,0,.71,2.719,5.932,5.932,0,0,0,1.96,1.969,5.536,5.536,0,0,0,2.72.7,5.242,5.242,0,0,0,2.67-.7,5.376,5.376,0,0,0,1.97-1.969,5.243,5.243,0,0,0,.75-2.719,5,5,0,0,0-.75-2.672,5.5,5.5,0,0,0-4.64-2.719Zm0,8.907a3.516,3.516,0,1,1,2.49-6,3.516,3.516,0,0,1-2.49,6Zm6.89-9.141a1.4,1.4,0,0,1-.42.891,1.069,1.069,0,0,1-.84.375,1.205,1.205,0,0,1-.89-.375,1.235,1.235,0,0,1,0-1.782,1.205,1.205,0,0,1,.89-.375,1.272,1.272,0,0,1,1.26,1.266Zm3.57,1.266a9.806,9.806,0,0,0-.43-2.344,5.05,5.05,0,0,0-1.31-2.016,5.1,5.1,0,0,0-2.01-1.312,8.392,8.392,0,0,0-2.35-.375c-.87-.063-2.33-.094-4.36-.094s-3.5.031-4.4.094a8.206,8.206,0,0,0-2.3.375,5.513,5.513,0,0,0-2.06,1.312,5.3,5.3,0,0,0-1.27,2.016,9.366,9.366,0,0,0-.42,2.344c-.03.875-.05,2.328-.05,4.359s.02,3.5.05,4.406a9.244,9.244,0,0,0,.42,2.3,5.735,5.735,0,0,0,1.27,2.063,5.3,5.3,0,0,0,2.06,1.218,7.171,7.171,0,0,0,2.3.422c.9.063,2.37.094,4.4.094s3.49-.031,4.36-.094a8.392,8.392,0,0,0,2.35-.375,5.361,5.361,0,0,0,2.01-1.265,5.445,5.445,0,0,0,1.31-2.063,8.111,8.111,0,0,0,.38-2.3q.09-1.359.09-4.406C1287.27,405.969,1287.26,404.516,1287.23,403.641Zm-2.25,10.547a3.572,3.572,0,0,1-2.02,2.015,9.337,9.337,0,0,1-2.53.375q-.99.047-2.91.047h-1.5c-1.25,0-2.22-.016-2.9-.047a9.777,9.777,0,0,1-2.53-.375,3.566,3.566,0,0,1-2.02-2.015,10.071,10.071,0,0,1-.38-2.532c-.03-.687-.04-1.656-.04-2.906v-1.5c0-1.25.01-2.219.04-2.906a9.574,9.574,0,0,1,.38-2.532,3.375,3.375,0,0,1,2.02-2.015,9.777,9.777,0,0,1,2.53-.375c.68-.031,1.65-.047,2.9-.047h1.5q1.875,0,2.91.047a9.337,9.337,0,0,1,2.53.375,3.4,3.4,0,0,1,2.02,2.015,9.663,9.663,0,0,1,.37,2.532c.03.656.05,1.625.05,2.906v1.5c0,1.25-.02,2.219-.05,2.906A10.158,10.158,0,0,1,1284.98,414.188Z" transform="translate(-1266.27 -397.5)" fill="#3a3a3a"/>
</svg>
