<svg xmlns="http://www.w3.org/2000/svg" width="24" height="19.5" viewBox="0 0 24 19.5">
  <path id="Path_1315" data-name="Path 1315" d="M1198.17,403.125a3,3,0,0,1,.04.609,13.825,13.825,0,0,1-1.64,6.516,13.35,13.35,0,0,1-4.73,5.3,14.193,14.193,0,0,1-15.19,0q.51.047,1.17.047a9.75,9.75,0,0,0,6.14-2.11,4.735,4.735,0,0,1-2.9-.937,5.021,5.021,0,0,1-1.69-2.438,8.722,8.722,0,0,0,.89.047,6.272,6.272,0,0,0,1.31-.14,4.966,4.966,0,0,1-2.81-1.735,4.722,4.722,0,0,1-1.13-3.093v-.094a4.672,4.672,0,0,0,2.21.656,5.479,5.479,0,0,1-1.6-1.781,4.752,4.752,0,0,1,.1-4.828,13.649,13.649,0,0,0,4.45,3.656,13.787,13.787,0,0,0,5.67,1.5,7.117,7.117,0,0,1-.09-1.125,4.995,4.995,0,0,1,2.44-4.266,4.745,4.745,0,0,1,2.43-.656,4.534,4.534,0,0,1,1.97.422,5.415,5.415,0,0,1,1.64,1.125,9.97,9.97,0,0,0,3.14-1.172,4.864,4.864,0,0,1-2.15,2.719,10.672,10.672,0,0,0,2.81-.8A11.029,11.029,0,0,1,1198.17,403.125Z" transform="translate(-1176.65 -398.25)" fill="#3a3a3a"/>
</svg>
